/* XPM */
static char *_da3533f1ff94701b13f4097db902727FGrN2mKp2LdS8Y8n[] = {
/* columns rows colors chars-per-pixel */
"64 64 132 2 ",
"   c #010001",
".  c #2C1C1D",
"X  c #301C1C",
"o  c #7C7C7C",
"O  c #A07676",
"+  c #938081",
"@  c #A6A6A6",
"#  c #B4A4A3",
"$  c #C79C9B",
"%  c #FC8F8D",
"&  c #F4938F",
"*  c #FC908C",
"=  c #E99E9C",
"-  c #F69491",
";  c #F99492",
":  c #F59895",
">  c #EAA09B",
",  c #F6A29E",
"<  c #FAA69E",
"1  c #F6A99E",
"2  c #FAA89D",
"3  c #D4AAA9",
"4  c #F5A6A2",
"5  c #FAA7A1",
"6  c #F6AAA4",
"7  c #F8A8A2",
"8  c #F2AFAB",
"9  c #F9AFAA",
"0  c #F6B6AE",
"q  c #FAB3AD",
"w  c #F6B9AF",
"e  c #EEBDB7",
"r  c #EFBBB8",
"t  c #F7B7B0",
"y  c #F9B6B1",
"u  c #F6BAB2",
"i  c #FABCB5",
"p  c #FABEB9",
"a  c #F7C2B7",
"s  c #F7C0B8",
"d  c #F7C1B9",
"f  c #F7C2B9",
"g  c #F6C3B9",
"h  c #F6C1BA",
"j  c #F6C2BA",
"k  c #F7C2BA",
"l  c #F6C2BB",
"z  c #F7C2BB",
"x  c #F6C1BC",
"c  c #F7C1BC",
"v  c #F5C2BC",
"b  c #F4C3BC",
"n  c #F6C2BC",
"m  c #F7C2BC",
"M  c #F7C2BD",
"N  c #F7C3BE",
"B  c #F7C2BC",
"V  c #F8C1BA",
"C  c #F8C2BA",
"Z  c #F9C2BB",
"A  c #F8C0BC",
"S  c #F9C0BC",
"D  c #FAC1BB",
"F  c #EDC5C0",
"G  c #ECC7C2",
"H  c #EFC6C4",
"J  c #EFC7C4",
"K  c #EFC7C5",
"L  c #EFC5C6",
"P  c #EFC6C7",
"I  c #EAC8C4",
"U  c #F7C2C0",
"Y  c #F3C5C1",
"T  c #F0C6C2",
"R  c #F0C6C4",
"E  c #F0C6C5",
"W  c #F0C6C6",
"Q  c #F0C6C7",
"!  c #F8C3C0",
"~  c #F8C2C1",
"^  c #F8C2C2",
"/  c #F5EBE4",
"(  c #F8E8E5",
")  c #F9E8E5",
"_  c #F9E9E5",
"`  c #FAE9E5",
"'  c #F9E8E7",
"]  c #F8E9E7",
"[  c #F9EAE6",
"{  c #FAFAF7",
"}  c #FCFAF7",
"|  c #FDFAF7",
" . c #FBFAF9",
".. c #FBFAFA",
"X. c #FBFAFB",
"o. c #FCFAFA",
"O. c #FAFEF9",
"+. c #FBFEF9",
"@. c #F9FCFA",
"#. c #FAFCFA",
"$. c #FAFDFA",
"%. c #FAFCFB",
"&. c #FAFDFB",
"*. c #FBFDFB",
"=. c #FDFDF9",
"-. c #FCFCFA",
";. c #FDFDFA",
":. c #FCFCFB",
">. c #FCFDFB",
",. c #FDFEFA",
"<. c #FDFEFB",
"1. c #FEFEFA",
"2. c #FEFEFB",
"3. c #FCFBFC",
"4. c #FAFCFC",
"5. c #FBFCFC",
"6. c gray99",
"7. c #FDFDFC",
"8. c #FCFCFD",
"9. c #FDFCFD",
"0. c #FEFCFC",
"q. c #FFFCFC",
"w. c #FEFDFC",
"e. c #FFFCFD",
"r. c #FEFDFD",
"t. c #FDFEFC",
"y. c #FCFEFD",
"u. c #FCFFFD",
"i. c #FEFEFD",
"p. c #FDFDFE",
"a. c #FEFDFE",
"s. c #FEFEFE",
/* pixels */
"2 1 5 5 5 5 5 5 5 5 5 5 5 5 5 5 5 5 5 5 5 5 5 5 5 5 5 5 5 5 5 5 5 5 5 5 5 5 5 5 5 5 5 5 5 5 5 5 5 5 5 5 5 5 5 5 5 5 5 5 5 5 2 1 ",
"7 7 2 5 5 5 5 5 5 5 5 5 5 5 5 5 5 5 5 5 5 5 5 5 5 5 5 5 5 5 5 5 5 5 5 5 5 5 5 5 5 5 5 5 5 5 5 5 5 5 5 5 5 5 5 5 5 5 5 5 5 5 1 2 ",
"5 5 5 5 5 5 5 5 5 5 5 5 5 5 5 5 5 5 5 5 5 5 5 5 5 5 5 5 5 5 5 5 5 5 5 5 5 5 5 5 5 5 5 5 5 5 5 5 5 5 5 5 5 5 5 5 5 5 5 5 5 5 5 5 ",
"5 5 5 5 5 5 5 5 5 5 5 5 5 5 5 5 5 5 5 5 5 5 5 5 5 5 5 5 5 5 5 5 5 5 5 5 5 5 5 5 5 5 5 5 5 5 5 5 5 5 5 5 5 5 5 5 5 5 5 5 5 5 5 5 ",
"5 5 5 5 5 5 5 5 5 5 5 5 5 5 5 5 5 5 5 5 5 5 5 5 5 5 5 5 5 5 5 5 5 5 5 5 5 5 5 5 5 5 5 5 5 5 5 5 5 5 5 5 5 5 5 5 5 5 5 5 5 5 5 5 ",
"5 5 5 5 5 5 5 5 5 5 5 5 5 5 5 5 5 5 5 5 5 5 5 5 5 5 5 5 5 5 5 5 5 5 5 5 5 5 5 5 5 5 5 5 5 5 5 5 5 5 5 5 5 5 5 5 5 5 5 5 5 5 5 5 ",
"5 5 5 5 5 5 5 5 5 5 5 5 5 5 5 5 5 5 5 5 5 5 5 5 5 5 5 5 5 5 5 5 5 5 5 5 5 5 5 5 5 5 5 5 5 5 5 5 5 5 5 5 5 5 5 5 5 5 5 5 5 5 5 5 ",
"5 5 5 5 5 5 5 5 5 5 5 5 5 5 5 5 5 5 5 5 5 5 5 5 5 5 5 5 5 5 5 5 5 5 5 5 5 5 5 5 5 5 5 5 5 5 5 5 5 5 5 5 5 5 5 5 5 5 5 5 5 5 5 5 ",
"5 5 5 5 5 5 5 5 5 5 5 5 5 5 5 5 5 5 5 5 5 5 5 5 5 5 5 5 5 5 5 5 5 5 5 5 5 5 5 5 5 5 5 5 5 5 5 5 5 5 5 5 5 5 5 5 5 5 5 5 5 5 5 5 ",
"5 5 5 5 5 5 5 5 5 5 5 5 5 5 5 5 5 5 5 5 5 5 5 5 5 5 5 5 5 5 5 5 5 5 5 5 5 5 5 5 5 5 5 5 5 5 5 5 5 5 5 5 5 5 5 5 5 5 5 5 5 5 5 5 ",
"5 5 5 5 5 5 5 5 5 5 5 5 5 5 5 5 5 5 5 5 5 5 5 5 5 5 5 5 5 5 5 5 5 5 5 5 5 5 5 5 5 5 5 5 5 5 5 5 5 5 5 5 5 5 5 5 5 5 5 5 5 5 5 5 ",
"5 5 5 5 5 5 5 5 5 5 5 5 5 5 5 5 5 5 5 5 5 5 5 5 5 5 5 5 5 5 5 5 5 5 5 5 5 5 5 5 5 5 5 5 5 5 5 5 5 5 5 5 5 5 5 5 5 5 5 5 5 5 5 5 ",
"5 5 5 5 5 5 5 5 5 5 5 5 5 5 5 5 5 5 5 5 5 5 5 5 5 5 5 5 5 5 5 5 5 5 5 5 5 5 5 5 5 5 5 5 5 5 5 5 5 5 5 5 5 5 5 5 5 5 5 5 5 5 5 5 ",
"5 5 5 5 5 5 5 5 5 5 5 5 5 5 5 5 5 5 5 5 5 5 5 5 5 5 5 5 5 5 5 5 5 5 5 5 5 5 5 5 5 5 5 5 5 5 5 5 5 5 5 5 5 5 5 5 5 5 5 5 5 5 5 5 ",
"5 5 5 5 5 5 5 5 5 5 5 5 5 5 5 5 5 5 5 5 5 5 5 5 5 5 5 5 5 5 5 5 5 5 5 5 5 5 5 5 5 5 5 5 5 5 5 5 5 5 5 5 5 5 5 5 5 5 5 5 5 5 5 5 ",
"5 5 5 5 5 5 5 5 5 5 5 5 5 5 5 5 5 5 5 5 5 5 5 5 5 5 5 5 5 5 5 5 5 5 5 5 5 5 5 5 5 5 5 5 5 5 5 5 5 5 5 5 5 5 5 5 5 5 5 5 5 5 5 5 ",
"5 5 5 5 5 5 5 5 5 5 5 5 5 5 5 5 5 5 5 5 5 5 5 5 5 5 5 5 5 5 5 5 5 5 5 5 5 5 5 5 5 5 5 5 5 5 5 5 5 5 5 5 5 5 5 5 5 5 5 5 5 5 5 5 ",
"5 5 5 5 5 5 5 5 5 5 5 5 5 5 5 5 5 5 5 5 5 5 5 5 5 5 5 5 5 5 5 5 5 5 5 5 5 5 5 5 5 5 5 5 5 5 5 5 5 5 5 5 5 5 5 5 5 5 5 5 5 5 5 5 ",
"5 5 5 5 5 5 5 5 5 5 5 5 5 5 5 5 5 5 5 5 5 5 5 5 5 5 5 5 5 5 5 5 5 5 5 5 5 5 5 5 5 5 5 5 5 5 5 5 5 5 5 5 5 5 5 5 5 5 5 5 5 5 5 5 ",
"5 5 5 5 5 5 5 5 5 5 5 5 5 5 5 5 5 5 5 5 5 5 5 5 5 5 5 5 5 5 5 5 5 5 5 5 5 5 5 5 5 5 5 5 5 5 5 5 5 5 5 5 5 5 5 5 5 5 5 5 5 5 5 5 ",
"5 5 5 5 5 5 5 5 5 5 5 5 5 5 5 5 5 5 5 5 5 5 5 5 5 5 5 5 5 5 5 5 5 5 5 5 5 5 5 5 5 5 5 5 5 5 5 5 5 5 5 5 5 5 5 5 5 5 5 5 5 5 5 5 ",
"5 5 5 5 5 5 5 5 5 5 5 5 5 5 5 5 5 5 5 5 5 5 5 5 5 5 5 5 5 5 5 5 5 5 5 5 5 5 5 5 5 5 5 5 5 5 5 5 5 5 5 5 5 5 5 5 5 5 5 5 5 5 5 5 ",
"2 2 2 2 2 2 2 < < 5 5 5 5 5 5 5 5 5 5 5 5 5 5 5 5 5 5 5 5 5 5 5 5 5 5 5 5 5 5 5 5 5 5 5 5 5 5 5 5 5 5 5 5 5 < 2 2 2 2 2 2 2 < < ",
"= = = = = = = > 4 6 6 6 6 6 6 6 6 6 6 5 5 5 5 5 5 5 5 5 5 5 5 5 5 5 5 5 5 5 5 5 5 5 5 5 6 7 6 6 6 6 6 6 6 6 4 = = = = = = = = = ",
". . . . . . . X # ( ( ( ( ( ( ( ( ( ( u 5 5 5 5 5 5 5 5 5 5 5 5 5 5 5 5 5 5 5 5 5 5 6 p / ( ( ( ( ( ( ( ( ( + . . . . . . . X X ",
"                @ %.%.%.%.%.%.%.%.%.{ e 5 5 5 5 5 5 5 5 5 5 5 5 5 5 5 5 5 5 5 5 5 5 6 m 5.%.>.%.%.%.%.%.%.%.o                   ",
"                @ >.>.>.>.>.>.>.y.y.} e 5 1 5 5 5 5 5 5 5 5 5 5 5 5 5 5 5 5 5 5 5 5 7 ^ y.>.>.>.>.>.>.>.y.>.o                   ",
"                @ y.y.y.y.y.y.y.y.>.} e 5 1 5 5 5 5 5 5 5 5 5 5 5 5 5 5 5 5 5 5 5 5 7 ^ y.>.y.y.y.y.y.y.y.y.o                   ",
"                @ y.y.y.y.y.y.y.y.>. .e 5 1 5 5 5 5 5 5 5 5 5 5 5 5 5 5 5 5 5 5 5 5 5 ^ y.y.y.y.y.y.y.y.y.y.o                   ",
"                @ y.y.y.y.y.y.y.y.>. .e 5 2 5 5 5 5 5 5 5 5 5 5 5 5 5 5 5 5 5 5 5 5 5 ^ y.y.y.y.y.y.y.y.y.y.o                   ",
"                @ y.y.y.y.y.y.y.y.>. .e 5 2 5 5 5 5 5 5 5 5 5 5 5 5 5 5 5 5 5 5 5 5 5 ^ y.y.y.y.y.y.y.y.y.y.o                   ",
"                @ y.y.y.y.y.y.y.y.>.o.e 5 2 5 5 5 5 5 5 5 5 5 5 5 5 5 5 5 5 5 5 5 5 7 ^ y.y.y.y.y.y.y.y.y.y.o                   ",
"                @ y.y.y.y.y.y.y.y.>. .e 5 2 5 5 5 5 5 5 5 5 5 5 5 5 5 5 5 5 5 5 5 5 5 ^ y.y.y.y.y.y.y.y.y.y.o                   ",
"                @ y.y.y.y.y.y.y.y.>. .e 5 2 5 5 5 5 5 5 5 5 5 5 5 5 5 5 5 5 5 5 5 5 5 ^ y.y.y.y.y.y.y.y.y.y.o                   ",
"                @ y.y.y.y.y.y.y.y.>. .e 5 2 5 5 5 5 5 5 5 5 5 5 5 5 5 5 5 5 5 5 5 5 7 ^ y.y.y.y.y.y.y.y.y.y.o                   ",
"                @ 5.y.y.y.y.y.y.y.%. .r 5 2 2 5 5 5 5 5 5 5 5 5 5 5 5 5 5 5 5 5 5 5 2 T y.y.y.y.y.y.y.y.y.3.o                   ",
"O O O O O O O O 3 E E E E E E E T G G 8 5 2 2 5 5 5 5 5 5 5 5 5 5 5 5 5 5 5 5 5 5 5 < 0 I E E E E E E E E E $ O O O O O O O O O ",
"2 2 2 2 2 2 2 2 2 2 2 2 2 2 2 2 5 6 6 5 5 5 5 5 5 5 5 5 5 5 5 5 5 5 5 5 5 5 5 5 5 5 5 2 5 5 2 2 2 2 2 2 2 2 2 2 2 2 2 2 2 2 2 2 ",
"5 5 5 5 5 5 5 5 5 5 5 5 5 5 5 5 5 7 7 7 7 7 6 6 6 6 6 6 6 6 6 6 6 6 6 6 6 6 6 6 6 6 7 7 6 7 7 5 5 5 5 5 5 5 5 5 5 5 5 5 5 5 5 5 ",
"5 5 5 5 5 5 5 5 5 5 5 5 5 5 5 y p p p p p p p p p p p p p p p p p p p p p p p p p p p p p p p q 5 5 5 5 5 5 5 5 5 5 5 5 5 5 5 5 ",
"5 5 5 5 5 5 5 5 5 5 5 5 5 5 4 i V V V m m k k m m m m m m m m m m m m m m m m m m m S S S k k y 4 5 5 5 5 5 5 5 5 5 5 5 5 5 5 5 ",
"5 5 5 5 5 5 5 5 5 5 5 5 5 5 4 q t 0 0 0 0 t k k k k k k k k k k k k k k k k k k k t t t t y y 9 5 5 5 5 5 5 5 5 5 5 5 5 5 5 5 5 ",
"5 5 5 5 5 5 5 5 5 5 5 5 5 5 5 : - ; ; - & : p m m m m m m m m m m m m m m m m m u : - ; ; - - : 2 5 5 5 5 5 5 5 5 5 5 5 5 5 5 5 ",
"5 5 5 5 5 5 5 5 5 5 5 5 5 5 5 ; * * % * * ; p m m m m m m m m m m m m m m m m V y - % % % % % ; 5 5 5 5 5 5 5 5 5 5 5 5 5 5 5 5 ",
"5 5 5 5 5 5 5 5 5 5 5 5 5 5 5 ; * * * * % : V m m m m m m m m m m m m m m m m V u & * * * * * ; 5 5 5 5 5 5 5 5 5 5 5 5 5 5 5 5 ",
"5 5 5 5 5 5 5 5 5 5 5 5 5 5 5 : % * * * * - V m m m m m m m m m m m m m m m m k u - * * * * * ; 5 5 5 5 5 5 5 5 5 5 5 5 5 5 5 5 ",
"5 5 5 5 5 5 5 5 5 5 5 5 5 5 5 : % % % % * : p m m m m m m m m m m m m m m m m k i - % % % % * ; 5 5 5 5 5 5 5 5 5 5 5 5 5 5 5 5 ",
"5 5 5 5 5 5 5 5 5 5 5 5 5 4 < - % % % * * - p m m m m m m m m m m m m m m m m k i & % % % % % ; 5 5 5 5 5 5 5 5 5 5 5 5 5 5 5 5 ",
"5 5 5 5 5 5 5 5 5 5 5 5 5 5 5 , , , , , < 4 V m m m m m m m m m m m m m m m m k p 4 , , , , , < 2 5 5 5 5 5 5 5 5 5 5 5 5 5 5 5 ",
"5 5 5 5 5 5 5 5 5 5 5 5 5 5 5 y V k m z V V k m m m m m m m m m m m m m m m m m k S S S V k k y 4 5 5 5 5 5 5 5 5 5 5 5 5 5 5 5 ",
"5 5 5 5 5 5 5 5 5 5 5 5 5 5 5 y k k m m S S m m m m m m m m m m m m m m m m m m m m m m m k k y 5 5 5 5 5 5 5 5 5 5 5 5 5 5 5 5 ",
"5 5 5 5 5 5 5 5 5 5 5 5 5 5 7 i k k k k k k k m m k k k m m m m m m m m m m m m m S k k k k a w 4 5 5 5 5 5 5 5 5 5 5 5 5 5 5 5 ",
"5 5 5 5 5 5 5 5 5 5 5 5 5 5 7 i m m m m m m m m m m m m m m m m m m m m m m m m m m m m m k k y 4 5 5 5 5 5 5 5 5 5 5 5 5 5 5 5 ",
"5 5 5 5 5 5 5 5 5 5 5 5 5 2 4 y V V V V V V V V V p p p V V p p p p p V V V V p p p p p V V p y 4 5 5 5 5 5 5 5 5 5 5 5 5 5 5 5 ",
"5 5 5 5 5 5 5 5 5 5 5 5 5 5 5 6 6 6 6 6 6 6 6 6 6 6 6 6 6 6 6 6 6 6 6 6 6 6 6 6 6 6 6 6 6 6 6 6 1 5 5 5 5 5 5 5 5 5 5 5 5 5 5 5 ",
"5 5 5 5 5 5 5 5 5 5 5 5 5 5 5 5 5 5 5 5 5 5 5 5 5 5 5 5 5 5 5 5 5 5 5 5 5 5 5 5 5 5 5 5 5 5 5 5 5 5 5 5 5 5 5 5 5 5 5 5 5 5 5 5 ",
"5 5 5 5 5 5 5 5 5 5 5 5 5 5 5 5 5 5 5 5 5 5 5 5 5 5 5 5 5 5 5 5 5 5 5 5 5 5 5 5 5 5 5 5 5 5 5 5 5 5 5 5 5 5 5 5 5 5 5 5 5 5 5 5 ",
"5 5 5 5 5 5 5 5 5 5 5 5 5 5 5 5 5 5 5 5 5 5 5 5 5 5 5 5 5 5 5 5 5 5 5 5 5 5 5 5 5 5 5 5 5 5 5 5 5 5 5 5 5 5 5 5 5 5 5 5 5 5 5 5 ",
"5 5 5 5 5 5 5 5 5 5 5 5 5 5 5 5 5 5 5 5 5 5 5 5 5 5 5 5 5 5 5 5 5 5 5 5 5 5 5 5 5 5 5 5 5 5 5 5 5 5 5 5 5 5 5 5 5 5 5 5 5 5 5 5 ",
"5 5 5 5 5 5 5 5 5 5 5 5 5 5 5 5 5 5 5 5 5 5 5 5 5 5 5 5 5 5 5 5 5 5 5 5 5 5 5 5 5 5 5 5 5 5 5 5 5 5 5 5 5 5 5 5 5 5 5 5 5 5 5 5 ",
"5 5 5 5 5 5 5 5 5 5 5 5 5 5 5 5 5 5 5 5 5 5 5 5 5 5 5 5 5 5 5 5 5 5 5 5 5 5 5 5 5 5 5 5 5 5 5 5 5 5 5 5 5 5 5 5 5 5 5 5 5 5 5 5 ",
"5 5 5 5 5 5 5 5 5 5 5 5 5 5 5 5 5 5 5 5 5 5 5 5 5 5 5 5 5 5 5 5 5 5 5 5 5 5 5 5 5 5 5 5 5 5 5 5 5 5 5 5 5 5 5 5 5 5 5 5 5 5 5 5 ",
"5 5 5 5 5 5 5 5 5 5 5 5 5 5 5 5 5 5 5 5 5 5 5 5 5 5 5 5 5 5 5 5 5 5 5 5 5 5 5 5 5 5 5 5 5 5 5 5 5 5 5 5 5 5 5 5 5 5 5 5 5 5 5 2 ",
"5 5 5 5 5 5 5 5 5 5 5 5 5 5 5 5 5 5 5 5 5 5 5 5 5 5 5 5 5 5 5 5 5 5 5 5 5 5 5 5 5 5 5 5 5 5 5 5 5 5 5 5 5 5 5 5 5 5 5 5 5 5 6 5 "
};
