/* XPM */
static char *dd19a0e3c58548aaeb0b160067cf299eJ39SYUAOV5H9O8RV[] = {
/* columns rows colors chars-per-pixel */
"64 64 239 2 ",
"   c black",
".  c #010000",
"X  c #000100",
"o  c #000001",
"O  c #010001",
"+  c #000101",
"@  c #010101",
"#  c #020000",
"$  c #020101",
"%  c #030101",
"&  c #000201",
"*  c #010201",
"=  c #000002",
"-  c #000102",
";  c #010102",
":  c #010103",
">  c #020102",
",  c #030102",
"<  c #020003",
"1  c #020103",
"2  c #030103",
"3  c #010202",
"4  c #020202",
"5  c #020303",
"6  c gray1",
"7  c #040101",
"8  c #050101",
"9  c #040102",
"0  c #050102",
"q  c #050103",
"w  c #060102",
"e  c #040202",
"r  c #000004",
"t  c #010104",
"y  c #010005",
"u  c #030004",
"i  c #020104",
"p  c #030104",
"a  c #010204",
"s  c #030204",
"d  c #040005",
"f  c #040105",
"g  c #040204",
"h  c #050106",
"j  c #050107",
"k  c gray2",
"l  c #070108",
"z  c #070208",
"x  c #070308",
"c  c #070209",
"v  c #070309",
"b  c #080208",
"n  c #080308",
"m  c #080209",
"M  c #080309",
"N  c #08030A",
"B  c #080408",
"V  c #09040A",
"C  c #09040B",
"Z  c #09050B",
"A  c #0A040B",
"S  c #09040C",
"D  c #09040D",
"F  c #0A040C",
"G  c #0A050D",
"H  c #26132D",
"J  c #2A142B",
"K  c #35173A",
"L  c #35173B",
"P  c #36173C",
"I  c #36173D",
"U  c #35193D",
"Y  c #38183C",
"T  c gray21",
"R  c #71277E",
"E  c #75257F",
"W  c #74267E",
"Q  c #75267F",
"!  c #76267F",
"~  c #751D83",
"^  c #761D83",
"/  c #741E84",
"(  c #751E84",
")  c #751E85",
"_  c #761F84",
"`  c #761F85",
"'  c #781C85",
"]  c #752581",
"[  c #762581",
"{  c #752582",
"}  c #762582",
"|  c #7A2E84",
" . c #7D268C",
".. c #7E4F83",
"X. c #8A3294",
"o. c #883596",
"O. c #883C91",
"+. c #893C93",
"@. c #9A27AF",
"#. c #9B27AF",
"$. c #9D26AE",
"%. c #9C27AE",
"&. c #9D26AF",
"*. c #9C27AF",
"=. c #9B28AE",
"-. c #9A28AF",
";. c #9B28AF",
":. c #9B26B0",
">. c #9A27B0",
",. c #9B27B0",
"<. c #9B26B1",
"1. c #9B27B1",
"2. c #9B27B2",
"3. c #9D26B0",
"4. c #9C27B0",
"5. c #9D27B0",
"6. c #9C27B1",
"7. c #9D27B1",
"8. c #9C26B2",
"9. c #9C27B2",
"0. c #9D27B2",
"q. c #9C27B3",
"w. c #9D27B3",
"e. c #9F26B2",
"r. c #9B28B0",
"t. c #9A28B1",
"y. c #9B28B1",
"u. c #9B29B3",
"i. c #9C28B0",
"p. c #9C28B1",
"a. c #9C28B3",
"s. c #A333B8",
"d. c #A431B8",
"f. c #A531B8",
"g. c #A531B9",
"h. c #A532B8",
"j. c #A630BB",
"k. c #805784",
"l. c #9F4CA8",
"z. c #9E56A9",
"x. c #A85DAC",
"c. c #AE5CB7",
"v. c #AE5EB9",
"b. c #B05FB7",
"n. c #B05EB8",
"m. c #B05FB8",
"M. c #B15FB8",
"N. c #B05FB9",
"B. c #B35EB9",
"V. c #B05EBA",
"C. c #AD60B7",
"Z. c #AE61B7",
"A. c #A869B1",
"S. c #A86BB1",
"D. c #AA6BB2",
"F. c #AA6AB3",
"G. c #AC6AB3",
"H. c #A86CB2",
"J. c #AA6AB4",
"K. c #AB69B6",
"L. c #AE60B8",
"P. c #AF60B8",
"I. c #AF6BBB",
"U. c #AF6DB8",
"Y. c #B060B7",
"T. c #B268BA",
"R. c #B26BBA",
"E. c #B26ABB",
"W. c #B06CBB",
"Q. c #B16BBC",
"!. c #B36ABC",
"~. c #B36BBC",
"^. c #B469BC",
"/. c #B46BBC",
"(. c #B06CBC",
"). c #B16CBC",
"_. c #B342C6",
"`. c #B443C6",
"'. c #B443C7",
"]. c #B443C8",
"[. c #B344C8",
"{. c #B346C8",
"}. c #B645C8",
"|. c #B645C9",
" X c #B546C9",
".X c #B644CA",
"XX c #D265E2",
"oX c #D366E3",
"OX c #D466E2",
"+X c #D466E3",
"@X c #D565E4",
"#X c #D664E6",
"$X c #E07DEC",
"%X c #E17CEE",
"&X c #E17CEF",
"*X c #E07DEF",
"=X c #E87CF8",
"-X c #E97DF9",
";X c #EB7DF9",
":X c #EA7CFA",
">X c #EA7DFA",
",X c #EA7FFA",
"<X c #EA7FFB",
"1X c #EC7FFB",
"2X c #EA7EFC",
"3X c #EA7FFC",
"4X c #EB7FFC",
"5X c #EA7FFD",
"6X c #EB7FFD",
"7X c #EC7FFC",
"8X c #EC7FFD",
"9X c #F17CFB",
"0X c #E980F9",
"qX c #EA80F9",
"wX c #E980FA",
"eX c #E880FB",
"rX c #E980FB",
"tX c #E981FB",
"yX c #EA80FA",
"uX c #EB80FA",
"iX c #EA80FB",
"pX c #ED80F9",
"aX c #EC80FA",
"sX c #EC80FB",
"dX c #E980FC",
"fX c #E881FC",
"gX c #E981FC",
"hX c #E980FD",
"jX c #E981FD",
"kX c #EA80FC",
"lX c #EB80FC",
"zX c #EA81FC",
"xX c #EA80FD",
"cX c #EB80FD",
"vX c #EA81FD",
"bX c #EA80FE",
"nX c #EC80FC",
"mX c #EC81FC",
"MX c #EC81FD",
/* pixels */
"                                                                                                                                ",
"                                                                                                                                ",
"                                                                                                                                ",
"                                                                                                                                ",
"                                                                                                                                ",
"                                                                                                                                ",
"                                                                                                                                ",
"                                                                                                                                ",
"                                                                                                                                ",
"                                                                                                                                ",
"                                                                                                                                ",
"                                                                                                                                ",
"                                                                                                                                ",
"                                                                                                                                ",
"                                                                                                                                ",
"                                                                                                                                ",
"                                                                                                                                ",
"                                                                                                                                ",
"                                                                                                                                ",
"                                                                                                                                ",
"                                                                                                                                ",
"                                                                                                                                ",
"                                                                                                                                ",
"                                                                                                                                ",
"                                                                                                                                ",
"                                                                                                                                ",
"                                                                                                                                ",
"                                                                                                                                ",
"                                                                                                                                ",
"7 7 7 7 7 7 7                 7 7 7 7 7 7 7                                         7 7 7 7         p p j j p         7 7 7 7 7 ",
"F F F C C M z M M z z z z z M C C F F F F F C j                             p C F C F F F F C C z z M M z z M z z z C F F F F F ",
").).).E./.O.W W W W ] ] ] W O./.).).).).).I.A.J                             p k.E.U.W.).).).Q.z.R ] ] ] ] ] ] ] W | E.Q.Q.Q.Q.).",
"8X8X4XdX8X}.2.3.3.3.3.3.3.y.{.dX4X8X8X8X8X4X$XY   p                         p A.9XdX8X8X8X4X8X#X3.3.3.3.3.3.3.3.p.s.<XdXdXdX4X8X",
"dXdXyXyXdX}.%.3.3.2.3.3.3.3.'.mXdXdXdXdXdXdX$XK j                           p H.1XdXdXdXdXyXyXoX;.3.3.3.3.3.3.3.3.f.<XdXdXdXdXdX",
"dXdXdXyXdX}.3.3.y.y.p.p.3.3.].mXdXdXdXdXdXdX$XK j                           j A.sXdXdXdXdXdXdX+X;.3.p.p.p.p.p.y.3.f.<XdXdXdXdXdX",
"dXdXdXyXdX}.3.3.y.y.p.p.3.3.].mXdXdXdXdXdXdX$XK j                           j A.sXdXdXdXdXdXdX+X#.3.p.p.p.p.p.y.3.f.<XdXdXdXdXdX",
"dXdXdXyXdX}.%.%.;.;.;.;.#.3.'.mXdXdXdXdXdXdX$XI 7                           j K.sXdXyXyXyXyXyX+X%.y.;.;.;.;.;.;.p.f.<XyXyXdXdXdX",
"dXdXdX4XdX}.3.3.3.3.3.3.3.3.'.mXdXdXdXdXdXdX$XI 7                           j G.sXmXyXdXdX4X4X#Xp.3.3.3.3.3.3.y.3.f.<XyXdXdX4X4X",
"yXyXyXyXyX{.%.3.2.2.2.2.2.3._.mXyXyXyXyXyXyX$XU 7 p                         j K.1X4X<X<X<X<XyXoX;.3.2.2.2.2.2.#.2.f.<X<XyXyXyXyX",
"b.b.b.n.v.o.~ ~ ( ( ( ( ( ' X.n.n.b.b.b.n.b.x.H   p                         j ..Y.P.Z.P.P.P.P.l.( ( ( ( ( ( ( ( (  .c.n.n.n.Z.Z.",
"p p         p p p p p p p         p p p p p                                   p       p p           p p p p p p p p         p p ",
"                                                                                                                                ",
"                                                                                                                                ",
"                                                                                                                                ",
"                                                                                                                                ",
"                                                                                                                                ",
"                                                                                                                                ",
"                                                                                                                                ",
"                                                                                                                                ",
"                                                                                                                                ",
"                                                                                                                                ",
"                                                                                                                                ",
"                                                                                                                                ",
"                                                                                                                                ",
"                                                                                                                                ",
"                                                                                                                                ",
"                                                                                                                                ",
"                                                                                                                                ",
"                                                                                                                                ",
"                                                                                                                                ",
"                                                                                                                                ",
"                                                                                                                                ",
"                                                                                                                                ",
"k                                                                                                                             T "
};
