/* XPM */
static char *_29724fb30ef40a0cbb0d6263aa9451acOWxVNkQxuH6uGsZ[] = {
/* columns rows colors chars-per-pixel */
"64 64 147 2 ",
"   c #161617",
".  c #181417",
"X  c #161518",
"o  c #181618",
"O  c #171819",
"+  c #1E1E1E",
"@  c #3A3722",
"#  c #3A3822",
"$  c #3F3E2B",
"%  c #494649",
"&  c #484849",
"*  c #535355",
"=  c #626052",
"-  c #6C6B51",
";  c #646465",
":  c gray42",
">  c #D9173B",
",  c #D7183C",
"<  c #D8183B",
"1  c #E60C3E",
"2  c #E80C3F",
"3  c #AB6F3C",
"4  c #DB1544",
"5  c #E50D40",
"6  c #E80C41",
"7  c #CA2042",
"8  c #DD2F59",
"9  c #D4365D",
"0  c #DD305A",
"q  c #E02F58",
"w  c #AD7944",
"e  c #D45A71",
"r  c #E15276",
"t  c #E05278",
"y  c #9F823C",
"u  c #A48137",
"i  c #A2813C",
"p  c #BEA727",
"a  c #BEA728",
"s  c #C0A62B",
"d  c #C0AA36",
"f  c #E6DF3D",
"g  c #E9DE3E",
"h  c #F4E727",
"j  c #F4E826",
"k  c #F5E729",
"l  c #F8E72F",
"z  c #F5E829",
"x  c #E5E03D",
"c  c #EBE33E",
"v  c #F3E933",
"b  c #F3E739",
"n  c #A48643",
"m  c #A78A4D",
"M  c #AC9357",
"N  c #AC9358",
"B  c #AB9761",
"V  c #AD9D6D",
"C  c #C1B964",
"Z  c #EFE642",
"A  c #E5E04D",
"S  c #F0E642",
"D  c #EBEA6A",
"F  c #E3E377",
"G  c #DC6B8B",
"H  c gray52",
"J  c #8B8B8C",
"K  c #B9A884",
"L  c #B4B298",
"P  c #AAAAAA",
"I  c #DDB0AF",
"U  c #DDB4BF",
"Y  c #E1B2BE",
"T  c #EAE5BB",
"R  c #F6F2B4",
"E  c #F6F2BB",
"W  c #DEB4C0",
"Q  c #DFBBC8",
"!  c #CACAC9",
"~  c #C3C3C3",
"^  c #D7D7D7",
"/  c #E5DCC7",
"(  c #E6DCC9",
")  c #E8DFCD",
"_  c #EDEDCF",
"`  c #F2F1C2",
"'  c #F2F1D3",
"]  c #F2F2D4",
"[  c #F3F2D4",
"{  c #F2F1D5",
"}  c #EFEFEE",
"|  c #F3E7E0",
" . c #F1EEE2",
".. c #F5E2E8",
"X. c #F3ECEC",
"o. c #EEF0EE",
"O. c #F3F4EF",
"+. c #F4F5EF",
"@. c #EFEFF2",
"#. c #F5EEF2",
"$. c #EFF3F4",
"%. c #F0F0F1",
"&. c #F3F3F2",
"*. c #F2F2F1",
"=. c #F4F3F2",
"-. c #F1F4F1",
";. c #F1F5F3",
":. c #F1F4F3",
">. c #F2F5F3",
",. c #F3F5F2",
"<. c #F3F4F0",
"1. c #F4F4F0",
"2. c #F4F5F0",
"3. c #F5F5F1",
"4. c #F4F6F1",
"5. c #F5F6F1",
"6. c #F4F4F3",
"7. c #F5F5F3",
"8. c #F5F4F2",
"9. c #F4F6F3",
"0. c #F6F6F2",
"q. c #F3F3F4",
"w. c #F5F3F5",
"e. c #F4F3F5",
"r. c #F5F3F6",
"t. c #F2F5F4",
"y. c #F3F4F5",
"u. c #F2F5F5",
"i. c #F3F4F4",
"p. c #F4F4F4",
"a. c #F5F4F4",
"s. c #F4F5F4",
"d. c #F5F5F4",
"f. c #F4F4F5",
"g. c #F4F5F5",
"h. c gray96",
"j. c #F5F4F5",
"k. c #F6F6F5",
"l. c #F5F4F6",
"z. c #F5F5F6",
"x. c #F5F4F7",
"c. c #F6F6F6",
"v. c gray97",
"b. c #F6F6F7",
"n. c #F5F5F5",
"m. c #F8F3F5",
"M. c gray98",
/* pixels */
"h.h.h.h.h.h.h.h.h.h.h.h.h.h.h.h.h.h.h.h.h.h.h.h.h.h.h.h.h.h.h.h.h.h.h.h.h.h.h.h.h.h.h.h.h.h.h.h.h.h.h.h.h.h.h.h.h.h.h.h.h.h.h.h.",
"h.h.h.h.h.h.h.h.h.h.h.h.h.h.h.h.h.h.h.h.h.h.h.h.h.h.h.h.h.h.h.h.h.h.h.h.h.h.h.h.h.h.h.h.h.h.h.h.h.h.h.h.h.h.h.h.h.h.h.h.h.h.h.h.",
"h.h.h.h.h.h.h.h.h.h.h.h.h.h.h.h.h.h.h.h.h.h.h.h.h.h.h.h.h.h.h.h.h.h.h.h.h.h.h.h.h.h.h.h.h.h.h.h.h.h.h.h.h.h.h.h.h.h.h.h.h.h.h.h.",
"h.h.h.h.h.h.h.h.h.h.h.h.h.h.h.h.h.h.h.h.h.h.h.h.h.h.h.h.h.h.h.h.h.h.h.h.h.h.h.h.h.h.h.h.h.h.h.h.h.h.h.h.h.h.h.h.h.h.h.h.h.h.h.h.",
"h.h.h.h.h.h.h.h.h.h.h.h.h.h.h.h.h.h.h.h.h.h.h.h.h.h.h.h.h.h.h.h.h.h.h.h.h.h.h.h.h.h.h.h.h.h.h.h.h.h.h.h.h.h.h.h.h.h.h.h.h.h.h.h.",
"h.h.h.h.h.h.h.h.h.h.h.h.h.h.h.h.h.h.h.h.h.h.h.h.h.h.h.h.h.h.h.h.h.h.h.h.h.h.h.h.h.h.h.h.h.h.h.h.h.h.h.h.h.h.h.h.h.h.h.h.h.h.h.h.",
"h.h.h.h.h.h.h.h.h.h.h.h.h.h.h.h.h.h.h.h.h.h.h.h.h.h.h.h.h.h.h.h.h.h.h.h.h.h.h.h.h.h.h.h.h.h.h.h.h.h.h.h.h.h.h.h.h.h.h.h.h.h.h.h.",
"h.h.h.h.h.h.h.h.h.h.h.h.h.h.h.h.h.h.h.h.h.h.h.h.h.h.h.h.h.h.h.h.h.h.h.h.h.h.h.h.h.h.h.h.h.h.h.h.h.h.h.h.h.h.h.h.h.h.h.h.h.h.h.h.",
"h.h.h.h.h.h.h.h.h.h.h.h.h.h.h.h.h.h.h.h.h.h.h.h.h.h.h.h.h.h.h.h.h.h.h.h.h.h.h.h.h.h.h.h.h.h.h.h.h.h.h.h.h.h.h.h.h.h.h.h.h.h.h.h.",
"h.h.h.h.h.h.h.h.h.h.h.h.h.h.h.h.h.h.h.h.h.h.h.h.h.h.h.h.h.h.h.h.h.h.h.h.h.h.h.h.h.h.h.h.h.h.h.h.h.h.h.h.h.h.h.h.h.h.h.h.h.h.h.h.",
"h.h.h.h.h.h.h.h.h.h.h.h.h.h.h.h.h.h.h.h.h.h.h.h.h.h.h.h.h.h.h.h.h.h.h.h.h.h.h.h.h.h.h.h.h.h.h.h.h.h.h.h.h.h.h.h.h.h.h.h.h.h.h.h.",
"h.h.h.h.h.h.h.h.h.h.h.h.h.h.h.h.h.h.h.h.h.h.h.h.h.h.h.h.h.h.h.h.h.h.h.h.h.h.h.h.h.h.h.h.h.h.h.h.h.h.h.h.h.h.h.h.h.h.h.h.h.h.h.h.",
"h.h.h.h.h.h.h.h.h.h.h.h.h.h.h.h.h.h.h.h.h.h.h.h.8.h.h.h.h.h.h.h.h.h.h.h.h.h.h.h.h.h.h.h.h.h.h.h.h.h.h.h.h.h.h.h.h.h.h.h.h.h.h.h.",
"h.h.h.h.h.h.h.h.h.h.h.h.h.h.h.H ; ; ; ; ; ; ; J *.h.h.h.h.h.h.h.h.h.h.h.h.h.h.h.~ ; ; ; ; ; ; ; : ^ h.h.h.h.h.h.h.h.h.h.h.h.h.h.",
"h.h.h.h.h.h.h.h.h.h.h.h.h.h.h.&       X X X X * *.h.h.h.h.h.h.h.h.h.h.h.h.h.h.h.P X X X X X X X + ! h.h.h.h.h.h.h.h.h.h.h.h.h.h.",
"h.h.h.h.h.h.h.h.h.h.h.h.h.h.h.& X   X X X X X * *.h.h.h.h.h.h.h.h.h.h.h.h.h.8.h.P X X X X X X X + ! h.h.h.h.h.h.h.h.h.h.h.h.h.h.",
"h.h.h.h.h.h.h.h.h.h.h.h.h.h.h.& X X X X X X   * *.h.h.h.h.h.h.h.h.h.h.h.h.h.8.h.P X X X X X X X + ! h.h.h.h.h.h.h.h.h.h.h.h.h.h.",
"h.h.h.h.h.h.h.h.h.h.h.h.h.h.h.& X X X X X X   * *.h.h.h.h.h.h.h.h.h.h.h.h.h.8.h.P X X X X X X X + ! h.h.h.h.h.h.h.h.h.h.h.h.h.h.",
"h.h.h.h.h.h.h.h.h.h.h.h.h.h.h.& X             * @.h.h.h.h.h.h.h.h.h.h.h.h.h.h.h.P O             + ! h.h.h.h.h.h.h.h.h.h.h.h.h.h.",
"h.h.h.h.h.h.h.h.h.h.h.h.h.h.h.& X             * o.,.8.8.8.8.8.8.8.8.8.8.8.8.8.8.P O             + ! h.h.h.h.h.h.h.h.h.h.h.h.h.h.",
"h.h.h.h.h.h.h.h.h.h.h.h.h.h.h.% o     . . X X * } e.h.h.h.h.h.h.h.h.h.h.h.h.8.h.P X       . . . + ! h.h.h.h.h.h.h.h.h.h.h.h.h.h.",
"h.h.h.h.h.h.h.h.h.h.h.h.h.h.h.= @ @ @ @ @ @ # - _ ' ] ] ] ] ] ] ] ] ] ] ] ] ] ] L # @ @ @ @ @ @ $ ! *.h.h.h.h.h.h.h.h.h.h.h.h.h.",
"h.h.h.h.h.h.h.h.h.h.h.h.8.h.,.F g x f f f f x c Z Z S S S S S S S S S S S S Z Z c f f f f x x x A ` *.q.h.h.h.h.h.h.h.h.h.h.h.h.",
"h.h.h.h.h.h.h.h.h.h.h.h.8.h.8.D l h h h h h h k z z z z z z z z z z z z z z k k k k j h h h h j v R ,.;.h.h.h.h.h.h.h.h.h.h.h.h.",
"h.h.h.h.h.h.h.h.h.h.h.h.8.h.O.D l h h h h h h h h z z z z z z z z z z z z z z z z z h h h z z j v E 8.;.h.h.h.h.h.h.h.h.h.h.h.h.",
"h.h.h.h.h.h.h.h.h.h.h.h.8.h.8.D k j k k k k k k k k k k k k k k k k k k k k k k k k k k k k k k v R ;.h.h.h.h.h.h.h.h.h.h.h.h.h.",
"h.h.h.h.h.h.h.h.h.h.h.h.8.h.8.D k j j z z z z z z z z z z z z z z z z z z z z z z z z z z z z z v R ;.h.h.h.h.h.h.h.h.h.h.h.h.h.",
"h.h.h.h.h.h.h.h.h.h.h.h.8.h.8.D k j j z z z z z z z z z z z z z z z z z z z z z z z z z z z z z v R ;.h.h.h.h.h.h.h.h.h.h.h.h.h.",
"h.h.h.h.h.h.h.h.h.h.h.h.h.h.8.D k h k k k k k k k k k k k k k k k k k k k k k k k k k k k k k k b E ;.h.h.h.h.h.h.h.h.h.h.h.h.h.",
"h.h.h.h.h.h.h.h.h.h.h.h.h.8.8.D l z z z z z l l l z z z z z z z z z z z z z z z z z z z z z z z v R 8.h.h.h.h.h.h.h.h.h.h.h.h.h.",
"h.h.h.h.h.h.h.h.h.h.h.h.h.8.8.C s a p a a a a a a p p a a a a p p a a a a a a a a a a a a a a a d T +.h.h.h.h.h.h.h.h.h.h.h.h.h.",
"h.h.h.h.h.h.h.h.h.h.h.h.h.h.8.V u y i i i i i i i i i i i i i i i i i i i i i i i i i i i i i i n / ;.e.h.h.h.h.h.h.h.h.h.h.h.h.",
"h.h.h.h.h.h.h.h.h.h.h.h.h.h.h.V i i i i i i i i i i i i i i i i i i i i i i i i i i i i i i i i n ( ;.e.h.h.h.h.h.h.h.h.h.h.h.h.",
"h.h.h.h.h.h.h.h.h.h.h.h.h.h.h.V i i i i i i i i i i i i i i i i i i i i i i i i i i i i i i i i n ( ;.e.h.h.h.h.h.h.h.h.h.h.h.h.",
"h.h.h.h.h.h.h.h.h.h.h.h.h.h.h.V i i i i i i i i i i i i i i i i i i i i i i i i i i i i i i i i n ( ,.e.h.h.h.h.h.h.h.h.h.h.h.h.",
"h.h.h.h.h.h.h.h.h.h.h.h.h.8.8.V i y i i i i i i i i i i i i i i i i i i i i i i i i i i i i i i n ( ,.e.h.h.h.h.h.h.h.h.h.h.h.h.",
"h.h.h.h.h.h.h.h.h.h.h.h.h.8.8.V i y i i i i i i i i i i i i i i i i i i i i i i i i i i i i i i n ( ,.e.h.h.h.h.h.h.h.h.h.h.h.h.",
"h.h.h.h.h.h.h.h.h.h.h.h.h.8.8.V i y i i i i i i i i i i i i i i i i i i i i i i i i i i i i i i n ( ,.e.h.h.h.h.h.h.h.h.h.h.h.h.",
"h.h.h.h.h.h.h.h.h.h.h.h.h.h.8.K N M M M M M N m 3 3 3 3 3 3 3 3 3 3 3 3 3 3 3 3 w M N N M M M N B ) ,.h.h.h.h.h.h.h.h.h.h.h.h.h.",
"h.h.h.h.h.h.h.h.h.h.h.h.h.h.q.X. . . . . . . .I 7 , < , < > > < , , , , , , < , e |  . . . . . . .*.;.h.h.h.h.h.h.h.h.h.h.h.h.h.",
"h.h.h.h.h.h.h.h.h.h.h.h.h.h.h.8.8.8.8.8.8.8.$.Y 4 2 2 2 2 2 2 2 2 2 2 2 2 2 1 2 t #.q.;.;.8.8.8.;.;.,.8.h.h.h.h.h.h.h.h.h.h.h.h.",
"h.h.h.h.h.h.h.h.h.h.h.h.h.h.h.h.h.h.h.h.h.h.h.Y 4 5 5 5 5 5 5 5 5 5 5 5 5 5 5 5 r #.;.h.h.h.h.h.h.h.h.h.h.h.h.h.h.h.h.h.h.h.h.h.",
"h.h.h.h.h.h.h.h.h.h.h.h.h.h.h.h.h.h.h.h.h.h.h.W 4 5 5 5 5 5 5 5 5 5 5 5 5 5 2 5 r #.h.h.h.h.h.h.h.h.h.h.h.h.h.h.h.h.h.h.h.h.h.h.",
"h.h.h.h.h.h.h.h.h.h.h.h.h.h.h.h.h.h.h.h.h.h.h.W 4 5 5 5 5 5 5 5 5 5 5 5 5 5 2 5 r #.h.h.h.h.h.h.h.h.h.h.h.h.h.h.h.h.h.h.h.h.h.h.",
"h.h.h.h.h.h.h.h.h.h.h.h.h.h.h.h.h.h.h.h.h.h.h.W 4 5 5 5 5 5 5 5 5 5 5 5 5 5 2 5 r #.h.h.h.h.h.h.h.h.h.h.h.h.h.h.h.h.h.h.h.h.h.h.",
"h.h.h.h.h.h.h.h.h.h.h.h.h.h.h.h.h.h.h.h.h.h.h.W 4 5 5 5 5 5 5 5 5 5 5 5 5 5 2 5 r #.h.h.h.h.h.h.h.h.h.h.h.h.h.h.h.h.h.h.h.h.h.h.",
"h.h.h.h.h.h.h.h.h.h.h.h.h.h.h.h.h.h.h.h.h.h.h.W 4 5 5 5 5 5 5 5 5 5 5 5 5 5 2 5 r #.h.h.h.h.h.h.h.h.h.h.h.h.h.h.h.h.h.h.h.h.h.h.",
"h.h.h.h.h.h.h.h.h.h.h.h.h.h.h.h.h.h.h.h.h.h.h.U 4 5 5 5 5 5 5 5 5 5 5 5 5 5 2 5 r #.h.h.h.h.h.h.h.h.h.h.h.h.h.h.h.h.h.h.h.h.h.h.",
"h.h.h.h.h.h.h.h.h.h.h.h.h.h.h.h.h.h.h.h.h.h.h.W 4 5 5 5 5 5 5 5 5 5 5 5 5 5 2 5 r #.h.h.h.h.h.h.h.h.h.h.h.h.h.h.h.h.h.h.h.h.h.h.",
"h.h.h.h.h.h.h.h.h.h.h.h.h.h.h.h.h.h.h.h.h.h.h.W 4 5 5 5 5 5 5 5 5 5 5 5 5 5 2 5 r #.h.h.h.h.h.h.h.h.h.h.h.h.h.h.h.h.h.h.h.h.h.h.",
"h.h.h.h.h.h.h.h.h.h.h.h.h.h.h.h.h.h.h.h.h.h.h.W 4 5 5 5 5 5 5 5 5 5 5 5 5 5 2 5 r #.h.h.h.h.h.h.h.h.h.h.h.h.h.h.h.h.h.h.h.h.h.h.",
"h.h.h.h.h.h.h.h.h.h.h.h.h.h.h.h.h.h.h.h.h.h.h.W 4 5 5 5 5 5 5 5 5 5 5 5 5 5 2 5 r #.h.h.h.h.h.h.h.h.h.h.h.h.h.h.h.h.h.h.h.h.h.h.",
"h.h.h.h.h.h.h.h.h.h.h.h.h.h.h.h.h.h.h.h.h.h.h.W 4 5 5 5 5 5 5 5 5 5 5 5 5 5 1 5 r #.h.h.h.h.h.h.h.h.h.h.h.h.h.h.h.h.h.h.h.h.h.h.",
"h.h.h.h.h.h.h.h.h.h.h.h.h.h.h.h.h.h.h.h.h.h.h.W 4 5 5 5 5 6 6 2 2 2 2 5 6 6 2 5 r #.h.h.h.h.h.h.h.h.h.h.h.h.h.h.h.h.h.h.h.h.h.h.",
"h.h.h.h.h.h.h.h.h.h.h.h.h.h.h.h.h.h.h.h.h.h.h.U 4 2 2 2 2 2 2 2 2 2 2 2 2 2 2 5 r #.h.h.h.h.h.h.h.h.h.h.h.h.h.h.h.h.h.h.h.h.h.h.",
"h.h.h.h.h.h.h.h.h.h.h.h.h.h.h.h.h.h.h.h.h.;.m.Q 9 0 0 0 8 8 0 8 8 8 8 8 8 8 0 q G #.h.h.h.h.h.h.h.h.h.h.h.h.h.h.h.h.h.h.h.h.h.h.",
"h.h.h.h.h.h.h.h.h.h.h.h.h.h.h.h.h.h.h.h.h.h.m.$.................................X.;.h.h.h.h.h.h.h.h.h.h.h.h.h.h.h.h.h.h.h.h.h.h.",
"h.h.h.h.h.h.h.h.h.h.h.h.h.h.h.h.h.h.h.h.h.h.8.m.e.;.;.;.;.;.;.;.;.;.;.;.;.;.;.e.,.h.h.h.h.h.h.h.h.h.h.h.h.h.h.h.h.h.h.h.h.h.h.h.",
"h.h.h.h.h.h.h.h.h.h.h.h.h.h.h.h.h.h.h.h.h.h.h.h.;.h.h.h.h.h.h.h.h.h.h.h.h.h.h.h.h.h.h.h.h.h.h.h.h.h.h.h.h.h.h.h.h.h.h.h.h.h.h.h.",
"h.h.h.h.h.h.h.h.h.h.h.h.h.h.h.h.h.h.h.h.h.h.h.h.h.h.h.h.h.h.h.h.h.h.h.h.h.h.h.h.h.h.h.h.h.h.h.h.h.h.h.h.h.h.h.h.h.h.h.h.h.h.h.h.",
"h.h.h.h.h.h.h.h.h.h.h.h.h.h.h.h.h.h.h.h.h.h.h.h.h.h.h.h.h.h.h.h.h.h.h.h.h.h.h.h.h.h.h.h.h.h.h.h.h.h.h.h.h.h.h.h.h.h.h.h.h.h.h.h.",
"h.h.h.h.h.h.h.h.h.h.h.h.h.h.h.h.h.h.h.h.h.h.h.h.h.h.h.h.h.h.h.h.h.h.h.h.h.h.h.h.h.h.h.h.h.h.h.h.h.h.h.h.h.h.h.h.h.h.h.h.h.h.h.h.",
"h.h.h.h.h.h.h.h.h.h.h.h.h.h.h.h.h.h.h.h.h.h.h.h.h.h.h.h.h.h.h.h.h.h.h.h.h.h.h.h.h.h.h.h.h.h.h.h.h.h.h.h.h.h.h.h.h.h.h.h.h.h.h.h.",
"M.h.h.h.h.h.h.h.h.h.h.h.h.h.h.h.h.h.h.h.h.h.h.h.h.h.h.h.h.h.h.h.h.h.h.h.h.h.h.h.h.h.h.h.h.h.h.h.h.h.h.h.h.h.h.h.h.h.h.h.h.h.h.M."
};
