/* XPM */
static char *_fcbc8af61d44cb5b6cbceb7e342f58dIYdJyfded2WzR8rF[] = {
/* columns rows colors chars-per-pixel */
"64 64 140 2 ",
"   c #010102",
".  c #080605",
"X  c #020208",
"o  c #141308",
"O  c #3D3C23",
"+  c #40331F",
"@  c #413322",
"#  c #444216",
"$  c #4F4D17",
"%  c #464418",
"&  c #544F1D",
"*  c #51501D",
"=  c #4E4022",
"-  c #6A5C33",
";  c #6C6A29",
":  c #7C6B2C",
">  c #7D7B24",
",  c #B5B63C",
"<  c #D48D0F",
"1  c #D1940D",
"2  c #D48D11",
"3  c #D88B11",
"4  c #D09411",
"5  c #DC9617",
"6  c #DC9519",
"7  c #D8A315",
"8  c #D7AA16",
"9  c #D7A618",
"0  c #D8A719",
"q  c #DEB520",
"w  c #E0A320",
"e  c #EFA72F",
"r  c #EFA92E",
"t  c #F1A72F",
"y  c #F0A82F",
"u  c #EBA736",
"i  c #E7A937",
"p  c #EAA835",
"a  c #EAA739",
"s  c #EAA93A",
"d  c #F2A730",
"f  c #F0A830",
"g  c #D4D12C",
"h  c #C6C634",
"j  c #C9C534",
"k  c #CBC038",
"l  c #EAC726",
"z  c #EDC52C",
"x  c #EEDD26",
"c  c #ECDE2B",
"v  c #EFCB32",
"b  c #EADB33",
"n  c #EBDE3B",
"m  c #F5D932",
"M  c #EEE02A",
"N  c #EFEE2E",
"B  c #F0E32A",
"V  c #F0EF2C",
"C  c #F1EF2C",
"Z  c #F1EF2D",
"A  c #F1EE2C",
"S  c #F2EE2C",
"D  c #F3EE2C",
"F  c #F2EF2C",
"G  c #F3EF2C",
"H  c #F3EE2D",
"J  c #F2EF2D",
"K  c #F1ED2F",
"L  c #F0EF2E",
"P  c #F1EF2E",
"I  c #F2EE2E",
"U  c #F3EE2E",
"Y  c #F2EF2E",
"T  c #F2EF2F",
"R  c #F1ED2C",
"E  c #F6EC2C",
"W  c #F4EE2C",
"Q  c #F4EF2D",
"!  c #F5EE2E",
"~  c #F2EF2B",
"^  c #EDF127",
"/  c #EFF129",
"(  c #EFF02C",
")  c #EFF02B",
"_  c #F1F027",
"`  c #F0F028",
"'  c #F0F128",
"]  c #F0F029",
"[  c #F1F029",
"{  c #F0F02A",
"}  c #F1F02A",
"|  c #F0F02B",
" . c #F1F02B",
".. c #F0F12B",
"X. c #F1F12B",
"o. c #F2F02B",
"O. c #F0F02C",
"+. c #F1F02C",
"@. c #F0F12C",
"#. c #F0F02D",
"$. c #F2F02C",
"%. c #F2F02D",
"&. c #F2F02C",
"*. c #EFEB30",
"=. c #EEE932",
"-. c #EDEA33",
";. c #EEEC32",
":. c #EFEC33",
">. c #ECEC31",
",. c #EBEA36",
"<. c #EDE934",
"1. c #ECE935",
"2. c #EDEA34",
"3. c #EEEA34",
"4. c #EEEA35",
"5. c #EDE936",
"6. c #ECEA37",
"7. c #F5E432",
"8. c #F0EC31",
"9. c #F1EC31",
"0. c #F0EF30",
"q. c #F3EE30",
"w. c #F5ED30",
"e. c #F3EE30",
"r. c #F2EE3A",
"t. c #F3EE3A",
"y. c #A39F43",
"u. c #A09F44",
"i. c #9FA143",
"p. c #A1A043",
"a. c #A1A045",
"s. c #A1A044",
"d. c #B2A348",
"f. c #F1EE40",
"g. c #F0EF40",
"h. c #F1EE41",
"j. c #F2EE40",
"k. c #F1EE42",
"l. c #EFF14A",
"z. c #F5F469",
/* pixels */
"$.$.$.$.$.$.$.$.$.$.$.$.$.$.$.$.$.$.$.$.$.$.$.$.$.$.$.$.$.$.$.$.$.$.$.$.$.$.$.$.$.$.$.$.$.$.$.$.$.$.$.$.$.$.$.$.$.$.$.$.$...9.l.",
"$.$.$.$.$.$.$.$.$.$.$.$.$.$.$.$.$.$.$.$.$.$.$.$.$.$.$.$.$.$.$.$.$.$.$.$.$.$.$.$.$.$.$.$.$.$.$.$.$.$.$.$.$.$.$.$.$.$.$.$.$.~ ~ ..",
"$.$.$.$.$.$.$.$.$.$.$.$.F F F F ............F F F $.$.$.$.$.$.$.$.$.$.$.$.$.$.$.$...............F ~ F F $.$.$.$.$.$.$.$.$.~ $.9.",
"$.$.$.$.$.$.$.$.$.$.$.F F F F F F F F ~ ~ ~ ~ F F F $.$.$.$.$.$.$.$.$.$.$.$.F ~ ..~ F F F F F F F ~ ~ F $.$.$.$.$.$.$.$.$...$.$.",
"$.$.$.$.$.$.$.$.$.$.$.F ~ ~ ~ ~ ............~ F F F $.$.$.$.$.$.$.$.$.$.$.$.~ ~ F ~ ........~ ~ ~ F F F $.$.$.$.$.$.$.$.$.$.$.$.",
"$.$.$.$.$.$.$.$.$.$.$...~ F =.3.=.=.=.3.3.3.9.F ~ ~ $.$.$.$.$.$.$.$.$.$.$.$.$.;.,.3.=.=.=.3.3.3.F F F ~ $.$.$.$.$.$.$.$.$.$.$.$.",
"$.$.$.$.$.$.$.$.$.$.$.F ~ g $ # # # # # # % , Q _ F $.$.$.$.$.$.$.$.F F F F N > # # # # # # # ; r.~ F F $.$.$.$.$.$.$.$.$.$.$.$.",
"$.$.$.$.$.$.$.$.$.$.$.F F j o             . s.w...F $.$.$.$.$.$.$.$.F F F F ;.&             X O k.~ ~ F $.$.$.$.$.$.$.$.$.$.$.$.",
"$.$.$.$.$.$.$.$.$.$.$.$.~ h o             . s.Q ..F $.$.$.$.$.$.$.$.F F F F N *               O k.~ ~ F $.$.$.$.$.$.$.$.$.$.$.$.",
"$.$.$.$.....$.$.$.$.$.F F h o             . p.W ..F $.$.$.$.$.$.$.$.F F F F ;.*               O k.~ ~ F ....$.$.$.$.$.$.$.$.$.$.",
"$.$.$.$.$.$.$.$.$.$.$.F ~ h o             . u.W ..F $.$.$.$.$.$.$.$.~ ~ F F 9.*               O k.~ ~ F ..$.....$.$.$.$.$.$.$.$.",
"$.$.$.$.$.$.$.$.$.$.$.F ~ h o             . s.W ..F $.$.$.$.$.$.$...~ ~ F F =.*               O k.~ ~ F ........$.$.$.$.$.$.$.$.",
"$.$.$.F F ..( $.$.....$.~ h o             . i.W ..F ......................F ;.*               O k.~ ..........F $.F F $.$.$.$.$.",
"$.$.F F $.~ W W W W W W W j o             . y.W W ~ ~ ~ ~ ~ ~ ~ ~ ~ ~ ..~ W N *           X   O r.W W W W ~ W F $.F F $.$.$.$.$.",
"$.$.F $.F B c c c c c c c k = @ @ @ @ @ @ @ d.c c c c c c c c c c c c c c c b : @ @ @ @ @ + @ - n c c c c c c c R ....$.$.$.$.$.",
"$.$.~ / Q l r r y r r r r r a a a a a a a u p r r r r r r r r r r r r r r r r u i u u u a p a s r r r r r r r r m Q ..$.$.$.$.$.",
"$.$.~ ~ ..z r y r y y y f r e r r r r r r r r r r r y y y y y y y y y y y y r r r r r r r r r r r r r r r r d r m F F $.$.$.$.$.",
"$.$.~ F ..z r y r y y y y y y r r r r r r r r r r r y y y y y y y y y y y y r r r r r r r r r r r r r r r r t r m $.F $.$.$.$.$.",
"$.$.~ F ..z r y r y y y y y y r r r r r r r r r r r y y y y y y y y y y y y r r r r r r r r r r r r r r r r t r m $.F $.$.$.$.$.",
"$.$.~ F ..z r y r r r r r r r r r r r r r r r r r r r r r r r r r r r r r r r r r r r r r r r r r r r r r r t r m F F $.$.$.$.$.",
"$.$.~ F ..z r y r r r r r r r r r r r r r r r r r r r r r r r r r r r r r r r r r r r r r r r r r r r r r r t r m F F $.$.$.$.$.",
"$.$.~ F ..z r y r r r r r r r r r r r r r r r r r r r r r r r r r r r r r r r r r r r r r r r r r r r r r r t r m F F $.$.$.$.$.",
"$.$.F ..$.z r r r r r r r r r r r r r r r r r r r r r r r r r r r r r r r r r r r r r r r r r p r r r r r r r r m F ..$.$.$.$.$.",
"$.$.F ..F 7.m m m m m m m v 5 6 5 5 6 6 6 6 6 6 6 6 6 6 6 6 6 6 6 6 6 6 6 6 6 6 6 6 6 6 6 6 5 w m m m m m m m m 7.F ..$.$.$.$.$.",
"$.$.F ....F $.$.F F F F / c 1 2 < < 2 2 2 2 2 2 2 2 2 2 2 2 2 2 2 2 2 2 2 2 2 2 2 2 2 2 2 2 < 7 w.~ ......~ ....~ ~ F $.$.$.$.$.",
"$.$.....~ ~ F F F F F F ~ c 1 2 < < < 2 2 2 2 2 2 2 2 2 2 2 2 2 2 2 2 2 2 2 2 2 2 2 2 2 2 < 2 7 w...~ ~ ~ ~ F Q F ....$.$.$.$.$.",
"$.$.F F F F $.$.F $.$.F F x 1 2 < < < 2 2 2 2 2 2 2 2 2 2 2 2 2 2 2 2 2 2 2 2 2 2 2 2 2 2 2 2 7 w.F ~ ..$.$.F F $.$.$.$.$.$.$.$.",
"$.$.F F F F $.$.$.$.$.F F x 1 2 < < < 2 2 2 2 2 2 2 2 2 2 2 2 2 2 2 2 2 2 2 2 2 2 2 2 2 2 2 2 7 w.Q ~ ..$.$.$.$.$.$.$.$.$.$.$.$.",
"$.$.F F F F $.$.$.$.$.F F x 1 2 < < < 2 2 2 2 2 2 2 2 2 2 2 2 2 2 2 2 2 2 2 2 2 2 2 2 2 2 2 2 7 w.Q ~ ..$.$.$.$.$.$.$.$.$.$.$.$.",
"$.$.F F F F $.$.$.$.$.F ~ c 4 2 < < < < < < < < < < < < < < < < < < < < < < < < < < < < < < 2 7 w.F F F $.$.$.$.$.$.$.$.$.$.$.$.",
"$.$.$.$.$.$.$.$.$.$.$...^ x 1 3 2 2 2 2 2 2 2 2 2 2 2 2 2 2 2 2 2 2 2 2 2 2 2 2 2 2 2 2 2 < 2 7 w.F $.$.$.$.$.$.$.$.$.$.$.$.$.$.",
"$.$.$.$.$.$.$.$.$.$.$.F F M 8 7 0 0 0 0 0 0 0 0 0 0 0 9 9 0 9 9 0 0 0 0 0 0 0 0 0 9 9 0 0 0 0 q w.F F F $.$.$.$.$.$.$.$.$.$.$.$.",
"$.$.$.$.$.$.$.$.$.$.$.$.../ 9.w.9.9.9.9.9.9.9.9.9.9.9.9.9.9.9.9.9.9.9.9.9.9.9.9.9.9.9.9.9.9.9.9.$.F F F $.$.$.$.$.$.$.$.$.$.$.$.",
"$.$.$.$.$.$.$.$.$.$.$.$.$.$.$.$.$.$.$.$.$.$.$.$.$.$.$.$.$.$.$.$.$.$.$.$.$.$.$.$.$.$.$.$.$.$.$.$.$.$.$.$.$.$.$.$.$.$.$.$.$.$.$.$.",
"$.$.$.$.$.$.$.$.$.$.$.$.$.$.$.$.$.$.$.$.$.$.$.$.$.$.$.$.$.$.$.$.$.$.$.$.$.$.$.$.$.$.$.$.$.$.$.$.$.$.$.$.$.$.$.$.$.$.$.$.$.$.$.$.",
"$.$.$.$.$.$.$.$.$.$.$.$.$.$.$.$.$.$.$.$.$.$.$.$.$.$.$.$.$.$.$.$.$.$.$.$.$.$.$.$.$.$.$.$.$.$.$.$.$.$.$.$.$.$.$.$.$.$.$.$.$.$.$.$.",
"$.$.$.$.$.$.$.$.$.$.$.$.$.$.$.$.$.$.$.$.$.$.$.$.$.$.$.$.$.$.$.$.$.$.$.$.$.$.$.$.$.$.$.$.$.$.$.$.$.$.$.$.$.$.$.$.$.$.$.$.$.$.$.$.",
"$.$.$.$.$.$.$.$.$.$.$.$.$.$.$.$.$.$.$.$.$.$.$.$.$.$.$.$.$.$.$.$.$.$.$.$.$.$.$.$.$.$.$.$.$.$.$.$.$.$.$.$.$.$.$.$.$.$.$.$.$.$.$.$.",
"$.$.$.$.$.$.$.$.$.$.$.$.$.$.$.$.$.$.$.$.$.$.$.$.$.$.$.$.$.$.$.$.$.$.$.$.$.$.$.$.$.$.$.$.$.$.$.$.$.$.$.$.$.$.$.$.$.$.$.$.$.$.$.$.",
"$.$.$.$.$.$.$.$.$.$.$.$.$.$.$.$.$.$.$.$.$.$.$.$.$.$.$.$.$.$.$.$.$.$.$.$.$.$.$.$.$.$.$.$.$.$.$.$.$.$.$.$.$.$.$.$.$.$.$.$.$.$.$.$.",
"$.$.$.$.$.$.$.$.$.$.$.$.$.$.$.$.$.$.$.$.$.$.$.$.$.$.$.$.$.$.$.$.$.$.$.$.$.$.$.$.$.$.$.$.$.$.$.$.$.$.$.$.$.$.$.$.$.$.$.$.$.$.$.$.",
"$.$.$.$.$.$.$.$.$.$.$.$.$.$.$.$.$.$.$.$.$.$.$.$.$.$.$.$.$.$.$.$.$.$.$.$.$.$.$.$.$.$.$.$.$.$.$.$.$.$.$.$.$.$.$.$.$.$.$.$.$.$.$.$.",
"$.$.$.$.$.$.$.$.$.$.$.$.$.$.$.$.$.$.$.$.$.$.$.$.$.$.$.$.$.$.$.$.$.$.$.$.$.$.$.$.$.$.$.$.$.$.$.$.$.$.$.$.$.$.$.$.$.$.$.$.$.$.$.$.",
"$.$.$.$.$.$.$.$.$.$.$.$.$.$.$.$.$.$.$.$.$.$.$.$.$.$.$.$.$.$.$.$.$.$.$.$.$.$.$.$.$.$.$.$.$.$.$.$.$.$.$.$.$.$.$.$.$.$.$.$.$.$.$.$.",
"$.$.$.$.$.$.$.$.$.$.$.$.$.$.$.$.$.$.$.$.$.$.$.$.$.$.$.$.$.$.$.$.$.$.$.$.$.$.$.$.$.$.$.$.$.$.$.$.$.$.$.$.$.$.$.$.$.$.$.$.$.$.$.$.",
"$.$.$.$.$.$.$.$.$.$.$.$.$.$.$.$.$.$.$.$.$.$.$.$.$.$.$.$.$.$.$.$.$.$.$.$.$.$.$.$.$.$.$.$.$.$.$.$.$.$.$.$.$.$.$.$.$.$.$.$.$.$.$.$.",
"$.$.$.$.$.$.$.$.$.$.$.$.$.$.$.$.$.$.$.$.$.$.$.$.$.$.$.$.$.$.$.$.$.$.$.$.$.$.$.$.$.$.$.$.$.$.$.$.$.$.$.$.$.$.$.$.$.$.$.$.$.$.$.$.",
"$.$.$.$.$.$.$.$.$.$.$.$.$.$.$.$.$.$.$.$.$.$.$.$.$.$.$.$.$.$.$.$.$.$.$.$.$.$.$.$.$.$.$.$.$.$.$.$.$.$.$.$.$.$.$.$.$.$.$.$.$.$.$.$.",
"$.$.$.$.$.$.$.$.$.$.$.$.$.$.$.$.$.$.$.$.$.$.$.$.$.$.$.$.$.$.$.$.$.$.$.$.$.$.$.$.$.$.$.$.$.$.$.$.$.$.$.$.$.$.$.$.$.$.$.$.$.$.$.$.",
"$.$.$.$.$.$.$.$.$.$.$.$.$.$.$.$.$.$.$.$.$.$.$.$.$.$.$.$.$.$.$.$.$.$.$.$.$.$.$.$.$.$.$.$.$.$.$.$.$.$.$.$.$.$.$.$.$.$.$.$.$.$.$.$.",
"$.$.$.$.$.$.$.$.$.$.$.$.$.$.$.$.$.$.$.$.$.$.$.$.$.$.$.$.$.$.$.$.$.$.$.$.$.$.$.$.$.$.$.$.$.$.$.$.$.$.$.$.$.$.$.$.$.$.$.$.$.$.$.$.",
"$.$.$.$.$.$.$.$.$.$.$.$.$.$.$.$.$.$.$.$.$.$.$.$.$.$.$.$.$.$.$.$.$.$.$.$.$.$.$.$.$.$.$.$.$.$.$.$.$.$.$.$.$.$.$.$.$.$.$.$.$.$.$.$.",
"$.$.$.$.$.$.$.$.$.$.$.$.$.$.$.$.$.$.$.$.$.$.$.$.$.$.$.$.$.$.$.$.$.$.$.$.$.$.$.$.$.$.$.$.$.$.$.$.$.$.$.$.$.$.$.$.$.$.$.$.$.$.$.$.",
"$.$.$.$.$.$.$.$.$.$.$.$.$.$.$.$.$.$.$.$.$.$.$.$.$.$.$.$.$.$.$.$.$.$.$.$.$.$.$.$.$.$.$.$.$.$.$.$.$.$.$.$.$.$.$.$.$.$.$.$.$.$.$.$.",
"$.$.$.$.$.$.$.$.$.$.$.$.$.$.$.$.$.$.$.$.$.$.$.$.$.$.$.$.$.$.$.$.$.$.$.$.$.$.$.$.$.$.$.$.$.$.$.$.$.$.$.$.$.$.$.$.$.$.$.$.$.$.$.$.",
"$.$.$.$.$.$.$.$.$.$.$.$.$.$.$.$.$.$.$.$.$.$.$.$.$.$.$.$.$.$.$.$.$.$.$.$.$.$.$.$.$.$.$.$.$.$.$.$.$.$.$.$.$.$.$.$.$.$.$.$.$.$.$.$.",
"$.$.$.$.$.$.$.$.$.$.$.$.$.$.$.$.$.$.$.$.$.$.$.$.$.$.$.$.$.$.$.$.$.$.$.$.$.$.$.$.$.$.$.$.$.$.$.$.$.$.$.$.$.$.$.$.$.$.$.$.$.$.$.$.",
"$.$.$.$.$.$.$.$.$.$.$.$.$.$.$.$.$.$.$.$.$.$.$.$.$.$.$.$.$.$.$.$.$.$.$.$.$.$.$.$.$.$.$.$.$.$.$.$.$.$.$.$.$.$.$.$.$.$.$.$.$.$.$.$.",
"$.$.$.$.$.$.$.$.$.$.$.$.$.$.$.$.$.$.$.$.$.$.$.$.$.$.$.$.$.$.$.$.$.$.$.$.$.$.$.$.$.$.$.$.$.$.$.$.$.$.$.$.$.$.$.$.$.$.$.$.$.$.$.$.",
"$.$.$.$.$.$.$.$.$.$.$.$.$.$.$.$.$.$.$.$.$.$.$.$.$.$.$.$.$.$.$.$.$.$.$.$.$.$.$.$.$.$.$.$.$.$.$.$.$.$.$.$.$.$.$.$.$.$.$.$.$.$.$.$.",
"$.$.$.$.$.$.$.$.$.$.$.$.$.$.$.$.$.$.$.$.$.$.$.$.$.$.$.$.$.$.$.$.$.$.$.$.$.$.$.$.$.$.$.$.$.$.$.$.$.$.$.$.$.$.$.$.$.$.$.$.$.$.$.F ",
"$.....$.$.$.$.$.$.$.$.$.$.$.$.$.$.$.$.$.$.$.$.$.$.$.$.$.$.$.$.$.$.$.$.$.$.$.$.$.$.$.$.$.$.$.$.$.$.$.$.$.$.$.$.$.$.$.$.$.$.$...F ",
"N ....$.$.$.$.$.$.$.$.$.$.$.$.$.$.$.$.$.$.$.$.$.$.$.$.$.$.$.$.$.$.$.$.$.$.$.$.$.$.$.$.$.$.$.$.$.$.$.$.$.$.$.$.$.$.$.$.$.$.F ~ ( ",
"~ F $.$.$.$.$.$.$.$.$.$.$.$.$.$.$.$.$.$.$.$.$.$.$.$.$.$.$.$.$.$.$.$.$.$.$.$.$.$.$.$.$.$.$.$.$.$.$.$.$.$.$.$.$.$.$.$.$.$.$...W z."
};
